<?xml version="1.0" encoding="utf-8"?>
<!-- Generator: Adobe Illustrator 18.1.1, SVG Export Plug-In . SVG Version: 6.00 Build 0)  -->
<svg version="1.1" xmlns="http://www.w3.org/2000/svg" xmlns:xlink="http://www.w3.org/1999/xlink" x="0px" y="0px"
	 viewBox="0 0 576 648" enable-background="new 0 0 576 648" xml:space="preserve">
<g id="Bucket_Fill" display="none">
	<path display="inline" fill="#AAA7A3" d="M414.6,631.7l-293.8-0.1c-6.4,0-12.8-3.1-12.8-9.5L47.2,133.6c0-6.4,5.2-11.6,11.6-11.6
		h410.1c6.4,0,11.6,5.2,11.6,11.6l-53.7,489.8C426.7,629.8,421,631.7,414.6,631.7z"/>
</g>
<g id="Bucket_Outline" display="none">
	<path display="inline" fill="none" stroke="#333333" stroke-width="20" stroke-miterlimit="10" d="M393.3,610.6l-293.8-0.1
		c-6.4,0-12.8-3.1-12.8-9.5L25.8,112.5c0-6.4,5.2-11.6,11.6-11.6h410.1c6.4,0,11.6,5.2,11.6,11.6l-53.7,489.8
		C405.4,608.6,399.6,610.6,393.3,610.6z"/>
</g>
<g id="Bucket_Outline_copy_2">
	<path fill="none" stroke="#333333" stroke-width="20" stroke-miterlimit="10" d="M39.7,142.9c-1.2-6.2,9.9-11.1,16.6-12.7
		c21.6-7.2,35.2-12.9,69-23c13.5-4,44.7-13.1,72.2-16.9c29.4-4.1,65-7.6,82.4-6.8c18.8-0.2,48.7-0.3,79,4.5
		c26.6,4.2,63.7,13,80.5,18.3c13.6,4.3,58,21.4,69.2,24.9c6.6,2.1,12.5,6.1,12.5,11.6l-221.4,89.8L39.7,142.9z"/>
</g>
<g id="Layer_10">
	<path fill="#AAA7A3" d="M464.9,600.2c-7.3,1.6-18.3,3.9-29.3,6.7c-5.9,1.5-21.5,3.8-28.8,5.4c-4.8,0.9-15.6,2.1-25.6,3.2
		c-2.1,0.2-4.2,0.5-6.2,0.7c-2.5,0.3-4.9,0.5-7,0.8c-2.6,0.3-4.7,0.5-6.1,0.7c-1.4,0.2-3,0.3-5,0.5c-1.6,0.1-3.5,0.3-5.4,0.4
		c-1.6,0.1-3.3,0.2-5.1,0.4c-2.5,0.2-5.2,0.3-7.9,0.5c-2.2,0.1-4.5,0.3-6.7,0.4c-2.1,0.1-4.1,0.3-6.2,0.4c-2,0.1-3.9,0.2-5.8,0.4
		c-1.8,0.1-3.5,0.2-5.2,0.3c-2.1,0.1-4.1,0.3-6,0.4c-1.5,0.1-3.7,0.1-6.4,0.1c-3,0-6.6-0.1-10.5-0.1c-5.4-0.1-11.2-0.2-16.7-0.3
		c-2.6,0-5.2-0.1-7.5-0.1c-4.3-0.1-7.9-0.1-10.1,0c-2.4,0.1-6.7,0-11.8-0.1c-3.6-0.1-7.6-0.2-11.6-0.3c-5.1-0.2-10.2-0.3-14.6-0.5
		c-4.3-0.2-7.8-0.4-9.8-0.6c-3.3-0.3-7.5-0.5-11.9-0.7c-3.5-0.2-7.1-0.3-10.5-0.5c-3.7-0.2-7.2-0.5-9.8-0.9
		c-5.2-0.8-11.6-1.5-18.2-2.3c-4.3-0.5-8.7-1-12.9-1.6c-7-0.9-12.2-6.6-12.2-12.2L63.4,161.3c0-5.6,5.8-10.1,12.8-10.1
		c30.6,0,58.2,24.5,88.7,24.5c33.1,0,72,13.2,105.1,13.2c46.8,0,106.4-8.9,152.1-16.7c40.4-6.9,68.2-21,109.6-21
		c7.1,0,12.8,4.6,12.8,10.1l-61.7,426.2c0,2-1.5,5.4-2.5,7.1C477.5,599.3,468.3,599.4,464.9,600.2z"/>
	<path fill="#AAA7A3" d="M467.5,610.5c-3.4,1.3-10.5,3.2-18.1,5c-6.9,1.6-12.1,2.7-17.8,3.7c-4.1,0.7-12.1,2.1-18,3.1
		c-6.3,1.1-10.2,1.6-19,3.2c-0.1,0-0.2,0-0.3,0c-8.1,0.8-11,1.5-19.1,2.4c-5.7,0.9-12.3,1.2-17.2,1.4c-4.9,0.6-13.2,1.1-16.9,1.4
		c-4.4,0.2-13.7,0.4-18.1,0.6c-8.3,0.2-15.3,0.4-23.5,0.6c-7.9-0.2-14.2-0.3-22.1-0.6c-7.2-0.2-16.1-0.9-23.3-1.2
		c-8.5-0.4-17.7-1.2-26.7-2c-7.3-0.7-13.9-1.7-20.9-2.6c-8.5-1.6-15.8-1.8-24.3-3.4c-8.9-1.7-17.4-3.5-22.8-4.7
		c-3-0.6-8.5-1.9-12.3-2.8c-1.5-0.3-11.9-3.2-12.3-9.2L67.7,181c0-5.5,41,19.3,85.3,28c26,5.2,53.4,10,76,13.1
		c36.3,4.9,68.8,6.7,82.1,6.7c13.6,0.3,49.8-2.2,83.3-6.4c27.1-3.4,55.7-7.7,74.6-14.2c22.5-7.8,73-32.7,73-27.2l-58.8,420.7
		C481.8,607.1,472,608.8,467.5,610.5z"/>
</g>
<g id="Bucket_Outline_copy">
	<path fill="none" stroke="#333333" stroke-width="20" stroke-miterlimit="10" d="M445.5,577.9c-3.5,1.3-10.7,3.3-18.3,5
		c-7,1.6-12.3,2.7-18.1,3.7c-4.2,0.7-12.3,2.2-18.3,3.2c-6.4,1.1-10.3,1.6-19.2,3.3c-0.1,0-0.2,0-0.3,0c-8.2,0.8-11.1,1.5-19.3,2.4
		c-5.8,0.9-12.5,1.2-17.5,1.5c-5,0.6-13.4,1.1-17.2,1.5c-4.4,0.2-13.9,0.4-18.4,0.6c-8.4,0.2-15.5,0.4-23.9,0.6
		c-8-0.2-14.4-0.3-22.4-0.6c-7.3-0.2-16.3-0.9-23.6-1.2c-8.6-0.5-18-1.2-27.1-2c-7.4-0.7-14.2-1.7-21.2-2.6
		c-8.6-1.6-17.3-3.2-25.9-4.8c-9.1-1.7-16.4-3.7-21.7-5.3c-7.3-2.2-9.9-3.8-12-4.5c-1.5-0.4-13.4-4.8-13.8-10.9L39.7,142.9
		c0-5.6,29.1,14.1,86.6,28.4c20.6,5.1,24.5,5.6,37,7.8c13.8,2.4,18.1,3,40.1,5.5c14,1.6,18.3,2.4,39.4,4.3c19.7,1.8,22,2,40.7,2
		c19.4,0,20.5,0.1,49-2c17.4-1.3,18.6-2.1,38.8-4c18.7-1.8,21.6-2.2,38.4-5.1c14.1-2.5,15.8-2.6,37.3-9.3
		c50.1-15.5,74.1-33.1,74.1-27.5l-59.7,426C460,574.4,450.1,576.1,445.5,577.9z"/>
</g>
<g id="Layer_7">
	<g>
		<path fill="none" stroke="#333333" stroke-width="20" stroke-miterlimit="10" d="M50,208.1c6.2,83.7,105.9,145.4,236.8,145.4"/>
		<path fill="none" stroke="#333333" stroke-width="20" stroke-miterlimit="10" d="M511.3,208.2c-4.8,80.6-94.4,145.3-225.3,145.3"
			/>
	</g>
</g>
<g id="Pin_Fill">
	<path fill="#FE7443" d="M440.7,172.7c0,13.5-1.9,26.5-5.3,38.8c-16,57.1-43.1,118.3-57.6,152.8c-1.3,3.1-77.9,182.1-81.3,182.1
		c-4.9,0-53.5-120.3-57.4-129.2c-13.3-30.4-61.9-148.7-78.4-202.9c-4-13.2-6.1-27.1-6.1-41.6c0-79,64.1-143.1,143.1-143.1
		S440.7,93.6,440.7,172.7z"/>
</g>
<g id="Pin_Outline">
	<path fill="none" stroke="#333333" stroke-width="20" stroke-miterlimit="10" d="M421,177.6c0,13.5-1.9,26.5-5.3,38.8
		c-16,57.1-43.1,118.3-57.6,152.8c-1.3,3.1-77.9,182.1-81.3,182.1c-4.9,0-53.5-120.3-57.4-129.2c-13.3-30.4-61.9-148.7-78.4-202.9
		c-4-13.2-6.1-27.1-6.1-41.6c0-79,64.1-143.1,143.1-143.1S421,98.6,421,177.6z"/>
</g>
<g id="Layer_9">
	<g>
		<path fill="#333333" d="M206.6,140H351c0.7,0,1.4-0.3,1.9-0.8c0.5-0.5,0.7-1.2,0.6-1.9c-0.4-4.1-1.1-8.1-2.2-12.1
			c-0.4-1.3-1.8-2.1-3.1-1.7c-1.3,0.4-2.1,1.8-1.7,3.1c0.8,2.8,1.3,5.6,1.7,8.4H209.4c4.1-31.1,30.2-54.2,61.9-54.2h15
			c22.2,0,43,12,54.1,31.2c0.7,1.2,2.2,1.6,3.4,0.9c1.2-0.7,1.6-2.2,0.9-3.4c-12-20.8-34.4-33.7-58.5-33.7h-15
			c-17,0-33.2,6.3-45.7,17.8c-12.4,11.4-20.1,26.9-21.5,43.7c-0.1,0.7,0.2,1.4,0.6,1.9C205.2,139.7,205.9,140,206.6,140z"/>
		<path fill="#333333" d="M343.4,117.9c0.4,0.8,0.7,1.7,1,2.5c0.4,1,1.3,1.6,2.3,1.6c0.3,0,0.6-0.1,0.9-0.2c1.3-0.5,1.9-2,1.4-3.3
			c-0.4-0.9-0.7-1.8-1.1-2.7c-0.6-1.3-2-1.8-3.3-1.3C343.5,115.2,342.9,116.7,343.4,117.9z"/>
		<path fill="#333333" d="M353,201.8c-0.5-0.5-1.2-0.8-1.9-0.8H206.5c-0.7,0-1.4,0.3-1.9,0.8c-0.5,0.5-0.7,1.2-0.6,1.9
			c1.9,18.4,17.2,32.2,35.7,32.2h5.1c1.4,0,2.5-1.1,2.5-2.5c0-1.4-1.1-2.5-2.5-2.5h-5.1c-14.9,0-27.5-10.5-30.3-24.9h138.8
			c-2.8,14.4-15.3,24.9-30.3,24.9h-59.5c-1.4,0-2.5,1.1-2.5,2.5c0,1.4,1.1,2.5,2.5,2.5H318c18.5,0,33.8-13.8,35.7-32.2
			C353.7,203,353.5,202.3,353,201.8z"/>
		<path fill="#333333" d="M252.3,230.9h-1c-1.4,0-2.5,1.1-2.5,2.5c0,1.4,1.1,2.5,2.5,2.5h1c1.4,0,2.5-1.1,2.5-2.5
			C254.8,232.1,253.7,230.9,252.3,230.9z"/>
		<path fill="#333333" d="M353.6,170.7c0-6.6-5.4-11.9-11.9-11.9h-6.4c-0.7,0-8.9,0-15.6,0c-6.5,0-10.6,1.8-10.6,2.5
			c0,0.7,2.1,2.5,8.5,2.5c6.6,0,16.9,0,17.6,0h6.4c3.8,0,6.9,3.1,6.9,6.9v1.9c0,3.8-3.1,6.9-6.9,6.9H226.4c-1.4,0-2.5,1.1-2.5,2.5
			c0,1.4,1.1,2.5,2.5,2.5h115.3c6.6,0,11.9-5.4,11.9-11.9V170.7z"/>
		<path fill="#333333" d="M216,184.6l12.5,0c1.4,0,9.6-1.3,9.6-2.6c0-1.4-9.7-2.4-11.1-2.4l-11,0c-3.8,0-6.9-3.1-6.9-6.9v-1.9
			c0-3.8,3.1-6.9,6.9-6.9h105.3c1.4,0,2.5-1.1,2.5-2.5c0-1.4-1.1-2.5-2.5-2.5H216c-6.6,0-11.9,5.4-11.9,11.9v1.9
			C204,179.2,209.4,184.6,216,184.6z"/>
		<path fill="#333333" d="M206.6,148.4c4.5,0,6.6,1.3,9,2.8c2.7,1.6,5.8,3.5,11.6,3.5c5.9,0,8.9-1.9,11.6-3.5c2.4-1.5,4.6-2.8,9-2.8
			c4.5,0,6.6,1.3,9,2.8c2.7,1.6,5.8,3.5,11.6,3.5c5.9,0,8.9-1.9,11.6-3.5c2.4-1.5,4.6-2.8,9-2.8c4.5,0,6.6,1.3,9,2.8
			c2.7,1.6,5.8,3.5,11.6,3.5c5.9,0,8.9-1.9,11.6-3.5c2.4-1.5,4.6-2.8,9-2.8c4.5,0,6.6,1.3,9,2.8c2.7,1.6,5.8,3.5,11.6,3.5
			c1.4,0,2.5-1.1,2.5-2.5c0-1.4-1.1-2.5-2.5-2.5c-4.5,0-6.6-1.3-9-2.8c-2.7-1.6-5.8-3.5-11.6-3.5c-5.9,0-8.9,1.9-11.6,3.5
			c-2.4,1.5-4.6,2.8-9,2.8c-4.5,0-6.6-1.3-9-2.8c-2.7-1.6-5.8-3.5-11.6-3.5c-5.9,0-8.9,1.9-11.6,3.5c-2.4,1.5-4.6,2.8-9,2.8
			c-4.5,0-6.6-1.3-9-2.8c-2.7-1.6-5.8-3.5-11.6-3.5s-8.9,1.9-11.6,3.5c-2.4,1.5-4.6,2.8-9,2.8c-4.5,0-6.6-1.3-9-2.8
			c-2.7-1.6-5.8-3.5-11.6-3.5c-1.4,0-2.5,1.1-2.5,2.5C204.1,147.3,205.2,148.4,206.6,148.4z"/>
		<path fill="#333333" d="M342,190.8c-2.7-1.6-5.8-3.5-11.6-3.5c-5.9,0-8.9,1.9-11.6,3.5c-2.4,1.5-4.6,2.8-9,2.8
			c-4.5,0-6.6-1.3-9-2.8c-2.7-1.6-5.8-3.5-11.6-3.5c-5.9,0-8.9,1.9-11.6,3.5c-2.4,1.5-4.6,2.8-9,2.8c-4.5,0-6.6-1.3-9-2.8
			c-2.7-1.6-5.8-3.5-11.6-3.5s-8.9,1.9-11.6,3.5c-2.4,1.5-4.6,2.8-9,2.8c-4.5,0-6.6-1.3-9-2.8c-2.7-1.6-5.8-3.5-11.6-3.5
			c-1.4,0-2.5,1.1-2.5,2.5c0,1.4,1.1,2.5,2.5,2.5c4.5,0,6.6,1.3,9,2.8c2.7,1.6,5.8,3.5,11.6,3.5c5.9,0,8.9-1.9,11.6-3.5
			c2.4-1.5,4.6-2.8,9-2.8c4.5,0,6.6,1.3,9,2.8c2.7,1.6,5.8,3.5,11.6,3.5c5.9,0,8.9-1.9,11.6-3.5c2.4-1.5,4.6-2.8,9-2.8
			c4.5,0,6.6,1.3,9,2.8c2.7,1.6,5.8,3.5,11.6,3.5c5.9,0,8.9-1.9,11.6-3.5c2.4-1.5,4.6-2.8,9-2.8c4.5,0,6.6,1.3,9,2.8
			c2.7,1.6,5.8,3.5,11.6,3.5c1.4,0,2.5-1.1,2.5-2.5c0-1.4-1.1-2.5-2.5-2.5C346.6,193.6,344.5,192.3,342,190.8z"/>
		<circle fill="#333333" cx="256" cy="94.7" r="2.5"/>
		<circle fill="#333333" cx="241.8" cy="110.4" r="2.5"/>
		<circle fill="#333333" cx="266.5" cy="110.4" r="2.5"/>
		<circle fill="#333333" cx="291.1" cy="110.4" r="2.5"/>
		<circle fill="#333333" cx="315.8" cy="110.4" r="2.5"/>
		<circle fill="#333333" cx="279.5" cy="94.7" r="2.5"/>
		<circle fill="#333333" cx="303.1" cy="94.7" r="2.5"/>
	</g>
</g>
</svg>
